:SAMPLES-PER-SECOND 30
:FULLY-SPECIFIED
:DEGREES
312
root  32.9732 34.0953 21.4787 -170.998 -3.76054 -179.674
LeftUpLeg  -7.39088 1.09177 2.07083
LeftLeg  20.4587 -1.0068 -0.305932
LeftFoot  -9.30977 0.0147386 0.181005
LeftToes  -16.1116 2.48695e-006 -1.03773e-007
Spine  3.48294 0.595713 0.72465
Spine1  6.95893 1.08234 1.46589
RightShoulder  0.0456969 5.83771 7.03175
RightArm  -41.6291 -17.1996 71.9079
RightForeArm  31.7326 12.8062 2.29224
RightHand  0.324593 -6.65413 -5.20405
LeftShoulder1  0.0165188 0.665624 -9.72648
LeftArm  -30.4691 17.1035 -66.7676
LeftForeArm  40.822 -6.93083 -1.21913
LeftHand  0.300949 4.74417 6.87536
HEad  8.43827 11.5103 -0.17891
RightUpLeg  -23.4599 -21.415 6.47256
RightLeg  10.6037 1.58461 0.193635
RightFoot  8.74758 0.0128382 0.20968
RightToes  -18.7841 -0.0787926 -0.166975
313
root  33.1983 34.1072 20.9682 -171.085 -4.32092 -179.355
LeftUpLeg  -7.30973 0.703633 2.90531
LeftLeg  21.997 -0.996422 -0.332429
LeftFoot  -9.26084 0.0140419 0.173364
LeftToes  -17.7331 2.48695e-006 -1.03773e-007
Spine  3.36859 0.561053 1.06672
Spine1  6.703 1.01348 2.09161
RightShoulder  0.0548996 5.62933 7.328
RightArm  -40.801 -15.0325 70.5517
RightForeArm  29.4372 14.3517 2.58145
RightHand  0.338001 -6.58783 -5.49229
LeftShoulder1  0.015756 0.259041 -9.1471
LeftArm  -29.5811 16.7482 -67.6822
LeftForeArm  40.0788 -6.90657 -1.21568
LeftHand  0.300712 5.21715 6.21493
HEad  8.00622 10.7435 0.524298
RightUpLeg  -23.0876 -23.5913 7.36513
RightLeg  11.6615 3.2873 0.46179
RightFoot  6.80744 0.00094435 0.361633
RightToes  -17.7383 -0.0775696 -0.158393
314
root  33.3991 34.1224 20.5158 -171.136 -4.36082 -179.094
LeftUpLeg  -7.47637 0.66243 3.63333
LeftLeg  23.9023 -1.11231 -0.412539
LeftFoot  -9.01148 0.0145031 0.184035
LeftToes  -20.0148 2.48695e-006 -1.03773e-007
Spine  3.25411 0.638393 1.33
Spine1  6.43916 1.17741 2.55919
RightShoulder  0.0645022 5.41483 7.71289
RightArm  -39.5724 -12.5836 69.2773
RightForeArm  27.2312 15.8645 2.86828
RightHand  0.367707 -6.45065 -6.14191
LeftShoulder1  0.0148223 0.30033 -8.97806
LeftArm  -27.9445 15.6897 -68.4419
LeftForeArm  39.9346 -7.33702 -1.29249
LeftHand  0.268063 5.17679 5.54705
HEad  7.62753 10.5984 1.16386
RightUpLeg  -22.0031 -22.7261 7.4494
RightLeg  11.4599 2.44538 0.335135
RightFoot  5.89861 0.00727121 0.224622
RightToes  -17.9042 -0.0758422 -0.155319
315
root  33.5646 34.1396 20.1107 -171.208 -4.06381 -178.795
LeftUpLeg  -7.84308 0.611528 4.27966
LeftLeg  26.1966 -0.976376 -0.407876
LeftFoot  -8.69279 0.0115962 0.152563
LeftToes  -22.3341 2.48695e-006 -1.03773e-007
Spine  3.196 0.787595 1.59409
Spine1  6.28839 1.49416 3.0204
RightShoulder  0.0736423 5.2419 7.73272
RightArm  -37.8759 -9.74731 68.3755
RightForeArm  25.7248 17.0272 3.09152
RightHand  0.412309 -6.20299 -7.22065
LeftShoulder1  0.0138906 0.510026 -8.93021
LeftArm  -26.0644 14.192 -69.4371
LeftForeArm  39.4669 -8.34303 -1.47281
LeftHand  0.243055 4.93638 5.25685
HEad  7.10799 10.9754 1.46016
RightUpLeg  -20.7879 -20.9791 7.37565
RightLeg  10.9379 1.10581 0.142044
RightFoot  5.39495 0.0140428 0.0792951
RightToes  -18.6212 -0.0737846 -0.15463
316
root  33.6957 34.1575 19.7379 -171.354 -3.79639 -178.691
LeftUpLeg  -8.47414 0.381708 4.62263
LeftLeg  29.0319 -0.625123 -0.299731
LeftFoot  -8.02238 0.00606864 0.0865336
LeftToes  -25.36 2.48695e-006 -1.03773e-007
Spine  3.19142 0.918497 1.79669
Spine1  6.24948 1.78757 3.35055
RightShoulder  0.0822322 5.2475 7.44151
RightArm  -36.2587 -6.81628 67.804
RightForeArm  25.3097 17.8742 3.25572
RightHand  0.419445 -6.09363 -7.4899
LeftShoulder1  0.013134 0.520371 -8.77983
LeftArm  -24.1419 12.6024 -70.6927
LeftForeArm  38.0187 -9.97062 -1.76743
LeftHand  0.228247 4.6538 5.23484
HEad  6.59854 11.4562 1.51901
RightUpLeg  -20.0741 -21.0022 7.46465
RightLeg  11.2353 1.46721 0.195755
RightFoot  4.46027 0.0110188 0.094587
RightToes  -18.4203 -0.071571 -0.155091
317
root  33.8074 34.1631 19.4026 -171.596 -3.59146 -178.662
LeftUpLeg  -9.64249 0.620075 4.89685
LeftLeg  32.9289 -0.603693 -0.342189
LeftFoot  -6.96853 0.00454029 0.0745601
LeftToes  -29.4831 2.48695e-006 -1.03773e-007
Spine  3.23063 1.06304 1.99246
Spine1  6.31044 2.12206 3.65377
RightShoulder  0.0911547 5.33799 6.99045
RightArm  -34.5167 -3.92523 67.2849
RightForeArm  25.4296 18.4387 3.36594
RightHand  0.3953 -5.94594 -7.22239
LeftShoulder1  0.0127256 0.354253 -8.48162
LeftArm  -22.1881 10.7936 -72.2241
LeftForeArm  35.9267 -11.8647 -2.11452
LeftHand  0.210404 4.35422 5.15215
HEad  6.26236 11.754 1.43722
RightUpLeg  -19.46 -21.9664 7.61353
RightLeg  11.6842 2.63166 0.371026
RightFoot  3.45213 0.00697245 0.146143
RightToes  -17.7692 -0.0693752 -0.15547
318
root  33.9129 34.1627 19.0929 -171.858 -3.46982 -178.66
LeftUpLeg  -11.3161 1.39631 5.21811
LeftLeg  37.6127 -0.928786 -0.629708
LeftFoot  -5.34149 0.00139353 0.101217
LeftToes  -33.3042 2.48695e-006 -1.03773e-007
Spine  3.28892 1.21302 2.17261
Spine1  6.41896 2.47944 3.91386
RightShoulder  0.101052 5.40465 6.63294
RightArm  -32.4915 -1.17023 66.6906
RightForeArm  25.436 18.8273 3.44228
RightHand  0.365327 -5.97609 -6.61287
LeftShoulder1  0.0128385 0.251408 -8.21801
LeftArm  -19.3055 8.68597 -73.7644
LeftForeArm  33.3971 -13.9218 -2.49727
LeftHand  0.193792 4.14059 4.9787
HEad  6.10696 11.8445 1.31699
RightUpLeg  -18.6554 -22.3905 7.58563
RightLeg  11.7701 3.19087 0.454438
RightFoot  2.69945 0.00496256 0.145392
RightToes  -17.2718 -0.066778 -0.154533
319
root  34.0059 34.1518 18.8078 -172.164 -3.38116 -178.57
LeftUpLeg  -13.2759 2.66495 5.70541
LeftLeg  42.7171 -1.64828 -1.34185
LeftFoot  -3.84875 -0.00297751 0.152096
LeftToes  -33.6783 2.48695e-006 -1.03773e-007
Spine  3.37564 1.37836 2.37705
Spine1  6.58772 2.87145 4.22344
RightShoulder  0.111504 5.39289 6.38955
RightArm  -30.7569 1.36355 66.0739
RightForeArm  25.7499 19.0729 3.49061
RightHand  0.351637 -5.84394 -6.50358
LeftShoulder1  0.0136457 0.236424 -8.0402
LeftArm  -16.1193 6.52601 -75.3217
LeftForeArm  31.5116 -16.983 -3.07876
LeftHand  0.176345 3.97706 4.69755
HEad  5.88039 11.7432 1.25131
RightUpLeg  -17.8598 -22.4806 7.55558
RightLeg  11.9098 3.36096 0.486921
RightFoot  2.01916 0.00385821 0.121266
RightToes  -16.8822 -0.0640042 -0.151294
320
root  34.0826 34.1363 18.5307 -172.462 -3.38597 -178.533
LeftUpLeg  -15.1668 3.73678 6.15468
LeftLeg  47.1236 -2.05624 -1.95293
LeftFoot  -2.95716 -0.00495362 0.169371
LeftToes  -30.7593 2.48695e-006 -1.03773e-007
Spine  3.46064 1.46891 2.53186
Spine1  6.74057 3.10011 4.45736
RightShoulder  0.121307 5.45872 6.26324
RightArm  -29.3221 3.40099 65.5565
RightForeArm  26.1895 19.3972 3.55465
RightHand  0.3408 -5.75087 -6.39989
LeftShoulder1  0.0153204 0.175175 -7.85235
LeftArm  -13.1633 4.36949 -76.7748
LeftForeArm  30.4999 -19.8062 -3.63224
LeftHand  0.150924 3.66143 4.34101
HEad  5.55793 11.7722 1.1721
RightUpLeg  -17.0706 -22.4053 7.43487
RightLeg  12.0186 3.21127 0.471508
RightFoot  1.38806 0.00327751 0.0874931
RightToes  -16.3342 -0.0612658 -0.146715
321
root  34.1592 34.1424 18.2377 -172.751 -3.04367 -178.722
LeftUpLeg  -16.5765 4.92409 6.39688
LeftLeg  49.4958 -1.56024 -1.61192
LeftFoot  -2.39933 -0.00276961 0.12403
LeftToes  -27.5306 2.48695e-006 -1.03773e-007
Spine  3.58478 1.60353 2.5535
Spine1  6.96026 3.38728 4.48672
RightShoulder  0.126201 5.45093 6.19709
RightArm  -28.2032 4.98051 65.3717
RightForeArm  26.5004 19.7779 3.63024
RightHand  0.333297 -5.60984 -6.41733
LeftShoulder1  0.0198022 0.151066 -7.75749
LeftArm  -10.2663 2.14073 -77.9822
LeftForeArm  29.9955 -22.1055 -4.09804
LeftHand  0.134464 3.34783 4.22004
HEad  4.63701 12.0557 1.0066
RightUpLeg  -16.0271 -21.2508 6.96387
RightLeg  11.7184 2.28254 0.323364
RightFoot  1.06026 0.0029783 0.0556304
RightToes  -15.8006 -0.0593066 -0.14223
322
root  34.2041 34.1476 17.9867 -172.998 -3.0322 -178.978
LeftUpLeg  -17.8804 5.35006 6.56246
LeftLeg  49.9903 -0.299868 -0.321328
LeftFoot  -2.78322 0.00123535 0.0508434
LeftToes  -25.5596 2.48695e-006 -1.03773e-007
Spine  3.67797 1.58089 2.53362
Spine1  7.10893 3.35092 4.44768
RightShoulder  0.126798 5.50823 6.16334
RightArm  -27.4189 5.82443 65.4078
RightForeArm  26.4475 20.3672 3.74818
RightHand  0.331953 -5.60715 -6.39328
LeftShoulder1  0.0245659 0.124759 -7.65639
LeftArm  -7.65597 0.160761 -79.0245
LeftForeArm  29.8142 -24.3552 -4.56916
LeftHand  0.110361 2.86847 4.02599
HEad  3.37293 12.7124 0.911038
RightUpLeg  -15.1337 -19.9776 6.44333
RightLeg  11.4275 0.848481 0.116611
RightFoot  0.847762 0.00289886 0.0279638
RightToes  -15.2052 -0.0581096 -0.137198
323
root  34.2292 34.1605 17.7539 -173.137 -2.84071 -179.219
LeftUpLeg  -18.8626 5.67698 6.76156
LeftLeg  48.2977 0.795122 0.777421
LeftFoot  -2.83562 0.00615824 -0.0319252
LeftToes  -23.6336 2.48695e-006 -1.03773e-007
Spine  3.72131 1.57565 2.48535
Spine1  7.16363 3.33205 4.39304
RightShoulder  0.125474 5.62282 6.04617
RightArm  -26.7808 5.92725 65.6597
RightForeArm  25.778 20.9837 3.87279
RightHand  0.327376 -5.54851 -6.37059
LeftShoulder1  0.0293315 0.0374825 -7.57205
LeftArm  -5.37115 -1.41938 -79.8719
LeftForeArm  29.7618 -26.4756 -5.02933
LeftHand  0.0937029 2.42905 4.03613
HEad  2.12627 13.5639 0.781683
RightUpLeg  -14.4052 -18.4775 5.94989
RightLeg  11.19 -0.567316 -0.0734582
RightFoot  0.67084 0.00257071 0.00906793
RightToes  -14.8938 -0.0572183 -0.134554
324
root  34.23 34.1838 17.5087 -173.19 -2.51585 -179.427
LeftUpLeg  -19.3645 5.88255 6.99226
LeftLeg  44.3849 1.5884 1.35978
LeftFoot  -2.27856 0.00860025 -0.0696578
LeftToes  -22.6307 2.48695e-006 -1.03773e-007
Spine  3.71742 1.54522 2.43673
Spine1  7.13851 3.2493 4.36488
RightShoulder  0.123412 5.72233 5.8961
RightArm  -26.127 5.48945 66.1021
RightForeArm  25.1964 21.4089 3.95934
RightHand  0.325484 -5.50292 -6.38714
LeftShoulder1  0.0314009 0.0904363 -7.49959
LeftArm  -3.49951 -2.51065 -80.6065
LeftForeArm  29.6808 -28.5308 -5.49246
LeftHand  0.0792943 2.08132 3.9799
HEad  1.18347 14.4419 0.59914
RightUpLeg  -13.8112 -17.8308 5.56146
RightLeg  11.036 -0.944916 -0.120587
RightFoot  0.463035 0.00149115 0.00850779
RightToes  -14.5374 -0.0567166 -0.133229
325
root  34.2084 34.2044 17.2675 -173.166 -2.15746 -179.562
LeftUpLeg  -19.4006 5.79806 7.3017
LeftLeg  38.4901 2.00597 1.389
LeftFoot  -1.68318 0.00864008 -0.0688028
LeftToes  -22.6085 2.48695e-006 -1.03773e-007
Spine  3.6841 1.46548 2.42321
Spine1  7.06609 3.07083 4.39746
RightShoulder  0.121774 5.80492 5.78802
RightArm  -25.4946 4.77494 66.6078
RightForeArm  25.1145 21.4051 3.9586
RightHand  0.317716 -5.38657 -6.36844
LeftShoulder1  0.0324096 0.185707 -7.42764
LeftArm  -2.21644 -3.01054 -81.2108
LeftForeArm  29.5495 -30.6167 -5.9821
LeftHand  0.0708237 1.85943 3.97738
HEad  0.440987 15.345 0.232597
RightUpLeg  -13.4247 -17.9855 5.31414
RightLeg  11.0912 -0.517401 -0.0659656
RightFoot  0.178011 0.000341974 0.0130933
RightToes  -14.6522 -0.0566882 -0.132769
326
root  34.1612 34.2139 17.0331 -173.047 -1.58611 -179.581
LeftUpLeg  -19.022 5.51509 7.67368
LeftLeg  30.9224 2.29252 1.17592
LeftFoot  -0.773878 0.00672772 -0.0415793
LeftToes  -22.925 2.48695e-006 -1.03773e-007
Spine  3.64827 1.41771 2.44805
Spine1  6.99849 2.96472 4.49124
RightShoulder  0.119947 5.8844 5.78134
RightArm  -24.8496 3.79425 67.0221
RightForeArm  25.4165 21.0867 3.89376
RightHand  0.306707 -5.32514 -6.21036
LeftShoulder1  0.0327219 0.30715 -7.38936
LeftArm  -1.2765 -3.00353 -81.5974
LeftForeArm  29.3844 -32.6475 -6.4803
LeftHand  0.0626322 1.67515 3.89604
HEad  -0.301096 16.236 -0.200807
RightUpLeg  -13.0307 -17.4375 5.11848
RightLeg  10.8984 -0.579708 -0.0720605
RightFoot  0.0076702 -0.000818552 0.0181898
RightToes  -14.877 -0.057217 -0.134411
